<?xml version="1.0" standalone="no"?>
<!DOCTYPE svg PUBLIC "-//W3C//DTD SVG 20010904//EN"
 "http://www.w3.org/TR/2001/REC-SVG-20010904/DTD/svg10.dtd">
<svg version="1.0" xmlns="http://www.w3.org/2000/svg"
 width="290.000000pt" height="186.000000pt" viewBox="0 0 290.000000 186.000000"
 preserveAspectRatio="xMidYMid meet">

<g transform="translate(0.000000,186.000000) scale(0.100000,-0.100000)"
fill="#000000" stroke="none">
<path d="M1948 1677 c-135 -51 -209 -142 -229 -281 -5 -35 -15 -66 -26 -77
-17 -16 -249 -79 -290 -79 -11 0 -35 16 -54 36 -70 73 -160 93 -244 55 -140
-63 -156 -264 -29 -351 46 -31 113 -44 161 -31 84 23 132 73 154 158 6 23 17
48 25 54 7 6 73 26 146 45 148 38 171 36 202 -17 54 -92 157 -150 278 -157 57
-3 81 -9 93 -22 22 -24 105 -245 105 -279 0 -16 -9 -36 -21 -47 -66 -60 -79
-183 -26 -263 80 -121 271 -113 345 14 19 34 22 52 20 112 -3 62 -7 76 -34
110 -35 44 -105 83 -149 83 -17 0 -39 6 -48 13 -18 13 -117 259 -117 289 0 10
25 42 55 71 76 74 108 148 109 247 1 66 -3 84 -32 142 -36 74 -87 124 -161
159 -58 28 -179 36 -233 16z"/>
<path d="M375 1488 c-141 -49 -183 -243 -73 -345 30 -28 89 -53 127 -53 16 0
38 -8 49 -17 21 -19 112 -248 112 -283 0 -11 -24 -44 -54 -74 -65 -64 -90
-111 -105 -189 -35 -190 106 -371 300 -385 176 -12 321 104 350 284 7 42 18
79 28 87 18 16 243 77 282 77 16 0 38 -14 60 -36 95 -101 239 -96 323 9 27 33
31 48 34 110 3 66 1 76 -27 119 -59 92 -178 121 -273 65 -51 -29 -80 -70 -97
-133 -6 -23 -18 -47 -26 -54 -20 -17 -276 -81 -297 -74 -9 3 -39 34 -67 69
-67 86 -147 126 -261 133 -56 3 -83 9 -94 21 -20 22 -106 247 -106 278 0 14
15 43 34 65 134 156 -26 393 -219 326z"/>
</g>
</svg>
